<?xml version="1.0" encoding="UTF-8" standalone="no"?>
<!-- Created with Inkscape (http://www.inkscape.org/) -->

<svg
   xmlns:dc="http://purl.org/dc/elements/1.1/"
   xmlns:cc="http://creativecommons.org/ns#"
   xmlns:rdf="http://www.w3.org/1999/02/22-rdf-syntax-ns#"
   xmlns:svg="http://www.w3.org/2000/svg"
   xmlns="http://www.w3.org/2000/svg"
   xmlns:sodipodi="http://sodipodi.sourceforge.net/DTD/sodipodi-0.dtd"
   xmlns:inkscape="http://www.inkscape.org/namespaces/inkscape"
   width="210mm"
   height="297mm"
   viewBox="0 0 210 297"
   version="1.1"
   id="svg8"
   inkscape:export-filename="C:\Users\alumno1\OneDrive\_ DAW\cliente\prJavaScript\cazanaves\img\setting2.png"
   inkscape:export-xdpi="96"
   inkscape:export-ydpi="96"
   inkscape:version="0.92.1 r15371"
   sodipodi:docname="drawing-1 iconos reset.svg">
  <defs
     id="defs2" />
  <sodipodi:namedview
     id="base"
     pagecolor="#ffffff"
     bordercolor="#666666"
     borderopacity="1.0"
     inkscape:pageopacity="0.0"
     inkscape:pageshadow="2"
     inkscape:zoom="0.24748737"
     inkscape:cx="209.50868"
     inkscape:cy="693.63412"
     inkscape:document-units="mm"
     inkscape:current-layer="g83"
     showgrid="false"
     inkscape:window-width="1366"
     inkscape:window-height="705"
     inkscape:window-x="-8"
     inkscape:window-y="-8"
     inkscape:window-maximized="1" />
  <metadata
     id="metadata5">
    <rdf:RDF>
      <cc:Work
         rdf:about="">
        <dc:format>image/svg+xml</dc:format>
        <dc:type
           rdf:resource="http://purl.org/dc/dcmitype/StillImage" />
        <dc:title></dc:title>
      </cc:Work>
    </rdf:RDF>
  </metadata>
  <g
     inkscape:label="Layer 1"
     inkscape:groupmode="layer"
     id="layer1">
    <g
       id="g36"
       transform="matrix(0.35277779,0,0,0.35277779,-352.62659,99.343648)">
      <path
         id="path10"
         d="m 90.050781,395.94922 c -7.167969,0 -14.058593,1.78906 -20.171875,5.14844 C 37.675781,359.81641 20,308.53516 20,256 20,125.86719 125.86719,20 256,20 c 15.82031,0 31.63281,1.574219 47,4.679688 5.40625,1.09375 10.6875,-2.40625 11.78125,-7.820313 C 315.875,11.445312 312.375,6.171875 306.96094,5.074219 290.29297,1.707031 273.14844,0 256,0 187.62109,0 123.33203,26.628906 74.980469,74.980469 26.628906,123.33203 0,187.62109 0,256 c 0,57.51953 19.53125,113.65234 55.089844,158.65234 -4.578125,6.83985 -7.039063,14.87891 -7.039063,23.29688 0,11.21875 4.371094,21.76562 12.304688,29.69531 7.929687,7.93359 18.476562,12.30469 29.695312,12.30469 11.218749,0 21.765629,-4.3711 29.699219,-12.30469 7.93359,-7.92969 12.30078,-18.48047 12.30078,-29.69922 0,-11.21484 -4.36719,-21.76562 -12.30078,-29.69531 -7.93359,-7.93359 -18.48047,-12.30078 -29.699219,-12.30078 z m 15.554689,57.55469 c -4.15234,4.15625 -9.679689,6.44531 -15.554689,6.44531 -5.875,0 -11.398437,-2.28906 -15.554687,-6.44531 -4.15625,-4.15625 -6.445313,-9.67969 -6.445313,-15.55469 0,-5.87891 2.289063,-11.40235 6.445313,-15.5586 4.152344,-4.15625 9.679687,-6.4414 15.554687,-6.4414 5.875,0 11.398439,2.28906 15.554689,6.4414 4.15625,4.15625 6.44531,9.67969 6.44531,15.5586 0,5.875 -2.28906,11.39844 -6.44531,15.55469 z m 0,0"
         inkscape:connector-curvature="0" />
      <path
         id="path12"
         d="m 456.90234,97.335938 c 10.8711,-16.308594 9.125,-38.605469 -5.2539,-52.984376 -7.9336,-7.929687 -18.48047,-12.300781 -29.69922,-12.300781 -11.21875,0 -21.76563,4.371094 -29.69922,12.300781 -7.93359,7.933594 -12.30078,18.480469 -12.30078,29.699219 0,11.21875 4.36719,21.765625 12.30078,29.699219 7.93359,7.93359 18.48047,12.30078 29.69922,12.30078 7.16797,0 14.05859,-1.78906 20.17187,-5.14844 C 474.32422,152.1875 492,203.46484 492,256 c 0,130.13281 -105.86719,236 -236,236 -15.66406,0 -31.32812,-1.54297 -46.55078,-4.58984 -5.41406,-1.08204 -10.68359,2.42968 -11.76953,7.84375 -1.08203,5.41796 2.42969,10.68359 7.84375,11.76953 C 222.03516,510.32422 239.01953,512 256,512 324.37891,512 388.66797,485.37109 437.01953,437.01953 485.37109,388.66797 512,324.37891 512,256 512,198.47656 492.46484,142.33984 456.90234,97.335938 Z m -50.50781,-7.726563 c -4.15625,-4.15625 -6.44531,-9.679687 -6.44531,-15.558594 0,-5.875 2.28906,-11.398437 6.44531,-15.554687 4.15235,-4.15625 9.67969,-6.445313 15.55469,-6.445313 5.875,0 11.40234,2.289063 15.55859,6.445313 8.57422,8.578125 8.57422,22.535156 0,31.113281 -4.15625,4.152344 -9.68359,6.441406 -15.55859,6.441406 -5.87891,0 -11.40235,-2.289062 -15.55469,-6.441406 z m 0,0"
         inkscape:connector-curvature="0" />
      <path
         id="path14"
         d="m 214.73437,428 c 0,5.52344 4.48047,10 10,10 h 62.52735 c 5.52344,0 10,-4.47656 10,-10 v -19.38672 c 13.14844,-3.53906 25.71875,-8.75 37.53125,-15.55469 l 13.6875,13.6875 c 1.875,1.875 4.41797,2.92969 7.07422,2.92969 2.64843,0 5.19531,-1.05469 7.07031,-2.93359 l 44.19531,-44.22656 c 3.90235,-3.90625 3.90235,-10.23829 0,-14.14063 l -13.67187,-13.67187 c 6.80468,-11.8125 12.01562,-24.38282 15.55468,-37.53125 h 19.3125 c 5.52344,0 10,-4.47657 10,-10 v -62.52735 c 0,-5.52344 -4.47656,-10 -10,-10 h -19.3164 C 405.16016,201.5 399.95312,188.92969 393.14844,177.11719 l 13.59765,-13.59766 c 1.875,-1.875 2.92969,-4.42187 2.92969,-7.07422 -0.004,-2.65234 -1.05859,-5.19922 -2.93359,-7.07422 l -44.23047,-44.19531 c -3.90235,-3.90234 -10.23438,-3.90234 -14.14063,0.004 l -13.57812,13.58203 c -11.8125,-6.80469 -24.38281,-12.01563 -37.53125,-15.55469 V 84 c 0,-5.523438 -4.47656,-10 -10,-10 h -62.52735 c -5.51953,0 -10,4.476562 -10,10 v 19.21094 c -13.14453,3.53515 -25.71484,8.74609 -37.52734,15.55078 L 163.625,105.17969 c -3.90234,-3.90235 -10.23438,-3.90625 -14.14063,-0.004 L 105.25781,149.375 c -1.8789,1.875 -2.93359,4.41797 -2.93359,7.07031 0,2.65235 1.05469,5.19922 2.92969,7.07422 l 13.59765,13.59766 c -6.80469,11.8125 -12.01562,24.3789 -15.55469,37.52734 H 84.019531 c -5.523437,0 -10,4.47656 -10,9.9961 l -0.03516,62.52734 c -0.0039,2.65234 1.050781,5.19922 2.925781,7.07422 1.875,1.875 4.417969,2.92969 7.074219,2.92969 h 19.312499 c 3.53907,13.14843 8.75,25.71875 15.55469,37.53125 L 105.17969,348.375 c -3.90235,3.90234 -3.90625,10.23438 0,14.14063 l 44.19531,44.22656 c 1.875,1.875 4.41797,2.93359 7.07031,2.93359 h 0.004 c 2.65234,0 5.19531,-1.05469 7.07031,-2.92969 l 13.68359,-13.6875 c 11.81641,6.80469 24.38672,12.01563 37.53125,15.55469 z M 181.125,372.02734 c -3.95703,-2.55859 -9.16406,-2.0039 -12.5,1.32813 l -12.17578,12.17578 -30.05859,-30.08203 12.16406,-12.16797 c 3.33203,-3.33203 3.88672,-8.53906 1.32812,-12.49609 -9.0664,-14.03125 -15.4414,-29.41016 -18.9414,-45.71485 -0.99219,-4.60547 -5.0625,-7.89843 -9.77735,-7.89843 H 93.988281 l 0.02344,-42.52735 h 17.152339 c 4.71485,0 8.78516,-3.28906 9.77735,-7.89844 3.5,-16.30078 9.875,-31.67968 18.9414,-45.71093 2.5586,-3.95703 2.00391,-9.16407 -1.32812,-12.4961 l -12.08594,-12.08984 30.08203,-30.05859 12.07422,12.07812 c 3.33594,3.33203 8.53906,3.88281 12.5,1.32813 14.02734,-9.06641 29.40625,-15.44141 45.71094,-18.94141 4.60547,-0.99219 7.89843,-5.06641 7.89843,-9.77734 V 94 h 42.52735 v 17.07422 c 0,4.71484 3.28906,8.78906 7.89844,9.77734 16.30078,3.50391 31.68359,9.875 45.71093,18.94141 3.95703,2.55859 9.16407,2.00781 12.4961,-1.32813 l 12.07812,-12.07421 30.08203,30.05859 -12.08593,12.08594 c -3.33594,3.33593 -3.88672,8.54297 -1.32813,12.5 9.06641,14.03125 15.4375,29.41015 18.94141,45.71093 0.98828,4.60938 5.0625,7.89844 9.77734,7.89844 h 17.18359 v 42.52735 h -17.18359 c -4.71484,0 -8.78516,3.29296 -9.77734,7.89843 -3.5,16.30078 -9.875,31.6836 -18.94141,45.71094 -2.55859,3.96094 -2.0039,9.16797 1.32813,12.5 l 12.16406,12.16406 -30.0586,30.08203 -12.17578,-12.17187 c -3.33593,-3.33594 -8.54297,-3.88672 -12.5,-1.32813 -14.03125,9.06641 -29.41015,15.4375 -45.71093,18.94141 -4.60938,0.99219 -7.89844,5.0625 -7.89844,9.77734 V 418 h -42.52735 v -17.25391 c 0,-4.71093 -3.29296,-8.78515 -7.89843,-9.77734 -16.30078,-3.5 -31.67969,-9.875 -45.71094,-18.94141 z m 0,0"
         inkscape:connector-curvature="0" />
      <path
         id="path16"
         d="m 338.62891,256 c 0,-45.5625 -37.06641,-82.62891 -82.62891,-82.62891 -45.5625,0 -82.62891,37.06641 -82.62891,82.62891 0,45.5625 37.06641,82.62891 82.62891,82.62891 45.5625,0 82.62891,-37.06641 82.62891,-82.62891 z m -145.25782,0 c 0,-34.53516 28.09375,-62.62891 62.62891,-62.62891 34.53516,0 62.62891,28.09766 62.62891,62.62891 0,34.53125 -28.09375,62.62891 -62.62891,62.62891 -34.53516,0 -62.62891,-28.09375 -62.62891,-62.62891 z m 0,0"
         inkscape:connector-curvature="0" />
      <path
         id="path18"
         d="m 348.07812,37.820312 c 2.63282,0 5.21094,-1.070312 7.07032,-2.929687 1.85937,-1.871094 2.92968,-4.449219 2.92968,-7.082031 0,-2.617188 -1.0664,-5.199219 -2.92968,-7.070313 -1.85938,-1.859375 -4.4375,-2.929687 -7.07032,-2.929687 -2.64062,0 -5.20703,1.070312 -7.0664,2.929687 -1.86328,1.871094 -2.9336,4.441407 -2.9336,7.070313 0,2.640625 1.07032,5.210937 2.9336,7.082031 1.85937,1.859375 4.42578,2.929687 7.0664,2.929687 z m 0,0"
         inkscape:connector-curvature="0" />
      <path
         id="path20"
         d="m 164.35937,474.35937 c -2.6289,0 -5.21093,1.07032 -7.07031,2.92969 -1.85937,1.85938 -2.92969,4.44141 -2.92969,7.07031 0,2.64063 1.07032,5.21094 2.92969,7.07032 1.85938,1.85937 4.44141,2.92968 7.07031,2.92968 2.62891,0 5.21094,-1.07031 7.07032,-2.92968 1.85937,-1.85938 2.92968,-4.44141 2.92968,-7.07032 0,-2.6289 -1.07031,-5.21093 -2.92968,-7.07031 -1.85938,-1.85937 -4.44141,-2.92969 -7.07032,-2.92969 z m 0,0"
         inkscape:connector-curvature="0" />
    </g>
    <g
       id="g55"
       transform="matrix(0.35208978,0,0,0.35208978,-275.59501,-90.980394)">
      <path
         id="path38"
         d="m 482.87109,125.02344 c 0,-23.16016 -18.83984,-42.000002 -42,-42.000002 -11.89062,0 -22.63672,4.976562 -30.28515,12.945312 L 246.68359,1.339844 c -3.09375,-1.785156 -6.90234,-1.785156 -9.99609,0 L 72.78125,95.96875 C 65.132812,88 54.390625,83.023438 42.5,83.023438 c -23.160156,0 -42,18.839842 -42,42.000002 0,19.71093 13.652344,36.28515 32,40.78515 V 355 c 0,3.57031 1.90625,6.87109 5,8.66016 l 163.85156,94.60156 c -1.08593,3.72656 -1.67968,7.66406 -1.67968,11.73828 0,23.15625 18.83984,42 42,42 23.15625,0 41.99609,-18.84375 41.99609,-42 0,-4.07031 -0.58984,-8 -1.67578,-11.72656 l 163.8789,-94.61328 c 3.09375,-1.78516 5,-5.08985 5,-8.66016 V 165.80859 c 18.34766,-4.5 32,-21.07422 32,-40.78515 z m -462.37109,0 c 0,-12.13281 9.867188,-22 22,-22 12.128906,0 21.996094,9.86719 21.996094,22 0,12.1289 -9.867188,22 -21.996094,22 -12.132812,0 -22,-9.8711 -22,-22 z M 241.67187,492 c -12.13281,0 -22,-9.86719 -22,-22 0,-12.12891 9.86719,-22 22,-22 12.12891,0 22,9.87109 22,22 0,12.13281 -9.87109,22 -22,22 z m 30.30469,-51.03516 C 264.32422,432.98437 253.57422,428 241.67187,428 c -11.89453,0 -22.64453,4.98047 -30.29296,12.95312 L 52.5,349.22656 V 165.80859 c 18.34375,-4.5 31.996094,-21.07422 31.996094,-40.78515 0,-4.07813 -0.59375,-8.01953 -1.683594,-11.75391 l 158.87109,-91.722655 158.875,91.722655 c -1.08984,3.73438 -1.68359,7.67188 -1.68359,11.75391 0,19.71093 13.65234,36.28515 31.99609,40.78515 v 183.41797 z m 168.89453,-293.9414 c -12.1289,0 -22,-9.8711 -22,-22 0,-12.13281 9.8711,-22 22,-22 12.13282,0 22,9.86719 22,22 0,12.1289 -9.86718,22 -22,22 z m 0,0"
         inkscape:connector-curvature="0" />
      <path
         id="path40"
         d="m 378.68359,155.12891 -132,-76.207035 c -3.09375,-1.785156 -6.90234,-1.785156 -9.99609,0 l -132,76.207035 c -3.09375,1.78906 -5,5.08984 -5,8.66015 v 152.41797 c 0,3.57031 1.90625,6.875 5,8.66016 l 132,76.21094 c 1.54688,0.89062 3.26953,1.33984 4.99609,1.33984 1.73047,0 3.45313,-0.44922 5,-1.33984 l 132,-76.21094 c 3.09375,-1.78516 5,-5.08985 5,-8.66016 V 163.78906 c 0,-3.57031 -1.90625,-6.87109 -5,-8.66015 z m -137,-56.000004 112,64.660154 -112,64.66406 -111.99609,-64.66406 z m 10,275.968754 V 330 c 0,-5.52344 -4.47656,-10 -10,-10 -5.51953,0 -9.99609,4.47656 -9.99609,10 v 45.09766 l -112,-64.66407 V 181.10938 l 117,67.55078 c 1.54688,0.89062 3.26953,1.33984 4.99609,1.33984 1.73047,0 3.45313,-0.44922 5,-1.33984 l 117,-67.55078 v 129.32421 z m 0,0"
         inkscape:connector-curvature="0" />
      <path
         id="path42"
         d="m 241.67578,275 c -2.64062,0 -5.21094,1.06641 -7.08203,2.92969 -1.85938,1.85937 -2.92969,4.4375 -2.92969,7.07031 0,2.62891 1.07031,5.20703 2.92969,7.06641 1.87109,1.86328 4.44141,2.93359 7.08203,2.93359 2.62891,0 5.21094,-1.07031 7.07031,-2.93359 1.85938,-1.85938 2.92969,-4.4375 2.92969,-7.06641 0,-2.63281 -1.07031,-5.21094 -2.92969,-7.07031 C 246.88672,276.06641 244.30469,275 241.67578,275 Z m 0,0"
         inkscape:connector-curvature="0" />
    </g>
    <g
       id="g83"
       transform="matrix(0.35277779,0,0,0.35277779,16.645023,61.727212)">
      <path
         id="path57"
         d="m 90.050781,395.94922 c -7.167969,0 -14.058593,1.78906 -20.171875,5.14844 C 37.675781,359.81641 20,308.53516 20,256 20,125.86719 125.86719,20 256,20 c 15.82031,0 31.63281,1.574219 47,4.679688 5.40625,1.09375 10.6875,-2.40625 11.78125,-7.820313 C 315.875,11.445312 312.375,6.171875 306.96094,5.074219 290.29297,1.707031 273.14844,0 256,0 187.62109,0 123.33203,26.628906 74.980469,74.980469 26.628906,123.33203 0,187.62109 0,256 c 0,57.51953 19.53125,113.65234 55.089844,158.65234 -4.578125,6.83985 -7.039063,14.87891 -7.039063,23.29688 0,11.21875 4.371094,21.76562 12.304688,29.69531 7.929687,7.93359 18.476562,12.30469 29.695312,12.30469 11.218749,0 21.765629,-4.3711 29.699219,-12.30469 7.93359,-7.92969 12.30078,-18.48047 12.30078,-29.69922 0,-11.21484 -4.36719,-21.76562 -12.30078,-29.69531 -7.93359,-7.93359 -18.48047,-12.30078 -29.699219,-12.30078 z m 15.554689,57.55469 c -4.15234,4.15625 -9.679689,6.44531 -15.554689,6.44531 -5.875,0 -11.398437,-2.28906 -15.554687,-6.44531 -4.15625,-4.15625 -6.445313,-9.67969 -6.445313,-15.55469 0,-5.87891 2.289063,-11.40235 6.445313,-15.5586 4.152344,-4.15625 9.679687,-6.4414 15.554687,-6.4414 5.875,0 11.398439,2.28906 15.554689,6.4414 4.15625,4.15625 6.44531,9.67969 6.44531,15.5586 0,5.875 -2.28906,11.39844 -6.44531,15.55469 z m 0,0"
         inkscape:connector-curvature="0" />
      <path
         id="path59"
         d="m 456.90234,97.335938 c 10.8711,-16.308594 9.125,-38.605469 -5.2539,-52.984376 -7.9336,-7.929687 -18.48047,-12.300781 -29.69922,-12.300781 -11.21875,0 -21.76563,4.371094 -29.69922,12.300781 -7.93359,7.933594 -12.30078,18.480469 -12.30078,29.699219 0,11.21875 4.36719,21.765625 12.30078,29.699219 7.93359,7.93359 18.48047,12.30078 29.69922,12.30078 7.16797,0 14.05859,-1.78906 20.17187,-5.14844 C 474.32422,152.1875 492,203.46484 492,256 c 0,130.13281 -105.86719,236 -236,236 -15.66406,0 -31.32812,-1.54297 -46.55078,-4.58984 -5.41406,-1.08204 -10.68359,2.42968 -11.76953,7.84375 -1.08203,5.41796 2.42969,10.68359 7.84375,11.76953 C 222.03516,510.32422 239.01953,512 256,512 324.37891,512 388.66797,485.37109 437.01953,437.01953 485.37109,388.66797 512,324.37891 512,256 512,198.47656 492.46484,142.33984 456.90234,97.335938 Z m -50.50781,-7.726563 c -4.15625,-4.15625 -6.44531,-9.679687 -6.44531,-15.558594 0,-5.875 2.28906,-11.398437 6.44531,-15.554687 4.15235,-4.15625 9.67969,-6.445313 15.55469,-6.445313 5.875,0 11.40234,2.289063 15.55859,6.445313 8.57422,8.578125 8.57422,22.535156 0,31.113281 -4.15625,4.152344 -9.68359,6.441406 -15.55859,6.441406 -5.87891,0 -11.40235,-2.289062 -15.55469,-6.441406 z m 0,0"
         inkscape:connector-curvature="0" />
      <path
         id="path61"
         d="m 227.42502,391.24787 c 0,4.28184 3.47332,7.75213 7.75214,7.75213 h 48.47203 c 4.28184,0 7.75213,-3.47029 7.75213,-7.75213 v -15.02885 c 10.19285,-2.74352 19.93752,-6.78311 29.09473,-12.0582 l 10.61073,10.61073 c 1.45352,1.45353 3.42487,2.27114 5.48403,2.27114 2.0531,0 4.02747,-0.81761 5.481,-2.27416 l 34.26079,-34.28502 c 3.02515,-3.02818 3.02515,-7.93686 0,-10.962 l -10.59862,-10.59862 c 5.27508,-9.15721 9.31467,-18.90189 12.0582,-29.09472 h 14.97131 c 4.28184,0 7.75213,-3.4703 7.75213,-7.75214 V 233.604 c 0,-4.28185 -3.47029,-7.75213 -7.75213,-7.75213 h -14.97433 c -2.74353,-10.18982 -6.7801,-19.93449 -12.05518,-29.0917 l 10.54108,-10.54109 c 1.45353,-1.45352 2.27114,-3.42789 2.27114,-5.48402 -0.003,-2.05613 -0.82063,-4.03051 -2.27416,-5.48403 l -34.28805,-34.2608 c -3.02515,-3.02514 -7.93383,-3.02514 -10.962,0.003 l -10.52594,10.52897 c -9.15721,-5.27508 -18.90188,-9.31467 -29.09473,-12.0582 v -14.88961 c 0,-4.28185 -3.47029,-7.75214 -7.75213,-7.75214 h -48.47203 c -4.27882,0 -7.75214,3.47029 -7.75214,7.75214 v 14.89257 c -10.18981,2.7405 -19.93448,6.78009 -29.09169,12.05517 l -10.52897,-10.52897 c -3.02515,-3.02515 -7.93383,-3.02817 -10.96201,-0.003 l -34.28502,34.2639 c -1.45654,1.45352 -2.27415,3.42487 -2.27415,5.481 0,2.05613 0.81761,4.0305 2.27113,5.48402 l 10.54108,10.54109 c -5.27509,9.15721 -9.31467,18.89885 -12.0582,29.0917 h -14.94405 c -4.28184,0 -7.75213,3.47028 -7.75213,7.74911 l -0.0273,48.47202 c -0.003,2.05613 0.81458,4.03051 2.2681,5.48403 1.45353,1.45353 3.42487,2.27114 5.48403,2.27114 h 14.97131 c 2.74353,10.19283 6.78311,19.93751 12.0582,29.09472 l -10.59861,10.59862 c -3.02516,3.02514 -3.02818,7.93382 0,10.962 l 34.26079,34.28502 c 1.45352,1.45352 3.42487,2.27416 5.481,2.27416 h 0.003 c 2.05613,0 4.02747,-0.81761 5.481,-2.27114 l 10.6077,-10.61073 c 9.16024,5.27509 18.90491,9.31468 29.09472,12.0582 z m -26.05443,-43.39075 c -3.06754,-1.98346 -7.1041,-1.55345 -9.69017,1.02958 l -9.43882,9.43883 -23.30182,-23.31999 9.42974,-9.43278 c 2.58303,-2.58303 3.01304,-6.61959 1.02958,-9.68713 -7.0284,-10.87721 -11.97038,-22.79915 -14.68363,-35.43876 -0.76916,-3.57022 -3.92452,-6.12297 -7.57953,-6.12297 h -13.31489 l 0.0182,-32.96777 h 13.29672 c 3.65501,0 6.81037,-2.54972 7.57953,-6.12297 2.71325,-12.63659 7.65523,-24.55851 14.68363,-35.43573 1.98346,-3.06754 1.55345,-7.1041 -1.02958,-9.68714 l -9.36918,-9.3722 23.31999,-23.30182 9.36009,9.36312 c 2.58607,2.58303 6.6196,3.01 9.69017,1.02958 10.87418,-7.0284 22.79612,-11.97039 35.43573,-14.68363 3.57022,-0.76916 6.12297,-3.92755 6.12297,-7.57953 v -13.23919 h 32.96777 v 13.23616 c 0,3.65501 2.54972,6.8134 6.12297,7.57953 12.63658,2.71627 24.56154,7.65523 35.43572,14.68363 3.06755,1.98345 7.10411,1.55648 9.68715,-1.02958 l 9.36312,-9.36009 23.31999,23.30182 -9.36918,9.36918 c -2.58606,2.58606 -3.01303,6.62262 -1.02958,9.69016 7.0284,10.87722 11.96735,22.79914 14.68363,35.43573 0.76613,3.57325 3.92452,6.12297 7.57953,6.12297 h 13.32094 v 32.96777 h -13.32094 c -3.65501,0 -6.81038,2.55275 -7.57953,6.12297 -2.71324,12.63658 -7.65523,24.56155 -14.68363,35.43573 -1.98345,3.07057 -1.55345,7.10713 1.02958,9.69016 l 9.42974,9.42975 -23.30182,23.31999 -9.43883,-9.4358 c -2.58606,-2.58607 -6.62262,-3.01304 -9.69017,-1.02958 -10.87721,7.0284 -22.79914,11.96735 -35.43572,14.68363 -3.57325,0.76916 -6.12297,3.92452 -6.12297,7.57952 v 13.37546 h -32.96777 v -13.37546 c 0,-3.65197 -2.55275,-6.81036 -6.12297,-7.57952 -12.63658,-2.71325 -24.55852,-7.65523 -35.43573,-14.68363 z m 0,0"
         inkscape:connector-curvature="0"
         style="stroke-width:0.7752133" />
      <path
         id="path63"
         d="m 323.46972,257.91118 c 0,-35.32066 -28.73438,-64.05503 -64.05503,-64.05503 -35.32066,0 -64.05503,28.73437 -64.05503,64.05503 0,35.32065 28.73437,64.05503 64.05503,64.05503 35.32065,0 64.05503,-28.73438 64.05503,-64.05503 z m -112.6058,0 c 0,-26.77212 21.77865,-48.55077 48.55077,-48.55077 26.77211,0 48.55076,21.78168 48.55076,48.55077 0,26.76908 -21.77865,48.55076 -48.55076,48.55076 -26.77212,0 -48.55077,-21.77865 -48.55077,-48.55076 z m 0,0"
         inkscape:connector-curvature="0"
         style="stroke-width:0.7752133" />
      <path
         id="path65"
         d="m 348.07812,37.820312 c 2.63282,0 5.21094,-1.070312 7.07032,-2.929687 1.85937,-1.871094 2.92968,-4.449219 2.92968,-7.082031 0,-2.617188 -1.0664,-5.199219 -2.92968,-7.070313 -1.85938,-1.859375 -4.4375,-2.929687 -7.07032,-2.929687 -2.64062,0 -5.20703,1.070312 -7.0664,2.929687 -1.86328,1.871094 -2.9336,4.441407 -2.9336,7.070313 0,2.640625 1.07032,5.210937 2.9336,7.082031 1.85937,1.859375 4.42578,2.929687 7.0664,2.929687 z m 0,0"
         inkscape:connector-curvature="0" />
      <path
         id="path67"
         d="m 164.35937,474.35937 c -2.6289,0 -5.21093,1.07032 -7.07031,2.92969 -1.85937,1.85938 -2.92969,4.44141 -2.92969,7.07031 0,2.64063 1.07032,5.21094 2.92969,7.07032 1.85938,1.85937 4.44141,2.92968 7.07031,2.92968 2.62891,0 5.21094,-1.07031 7.07032,-2.92968 1.85937,-1.85938 2.92968,-4.44141 2.92968,-7.07032 0,-2.6289 -1.07031,-5.21093 -2.92968,-7.07031 -1.85938,-1.85937 -4.44141,-2.92969 -7.07032,-2.92969 z m 0,0"
         inkscape:connector-curvature="0" />
    </g>
    <g
       id="g102"
       transform="matrix(0.35277729,0,0,0.35277729,322.8704,-204.54909)">
      <path
         id="path85"
         d="m 91.125,322.44141 c 14.82422,-14.82422 14.82422,-38.94922 0,-53.77344 -7.183594,-7.17969 -16.730469,-11.13672 -26.886719,-11.13672 -5.871093,0 -11.535156,1.32812 -16.65625,3.83203 -18.058593,-25.83594 -27.570312,-56.07031 -27.570312,-87.87109 0,-81.386721 63.578125,-148.808596 144.738281,-153.496096 5.51953,-0.320313 9.73047,-5.050782 9.41406,-10.566406 -0.32031,-5.519532 -5.05078,-9.71875 -10.5664,-9.414063 C 71.859375,5.316406 0,81.515625 0,173.49219 c 0,36.69531 11.214844,71.55078 32.476562,101.15625 -9.714843,14.75 -8.089843,34.82812 4.875,47.79297 7.183594,7.17968 16.730469,11.13671 26.886719,11.13671 10.15625,0 19.703125,-3.95703 26.886719,-11.13671 z M 51.5,282.82031 c 3.511719,-3.51172 8.125,-5.26953 12.738281,-5.26953 4.609375,0 9.222657,1.75781 12.734375,5.26953 7.023438,7.01953 7.023438,18.44922 0,25.46875 -7.023437,7.02344 -18.449218,7.02344 -25.472656,0 -7.019531,-7.01953 -7.019531,-18.44531 0,-25.46875 z m 0,0"
         inkscape:connector-curvature="0" />
      <path
         id="path87"
         d="m 328.04297,346.66797 c -6.32422,0 -12.26953,1.64844 -17.42969,4.53906 -4.57422,-14.50391 -18.15234,-25.05078 -34.14844,-25.05078 -10.12109,0 -19.27343,4.22266 -25.78906,10.99609 -1.80859,-1.875 -3.82031,-3.55078 -5.99609,-5 23.0625,-10.32422 43.8164,-25.66015 60.60937,-45.08593 27.24219,-31.52344 42.2461,-71.85938 42.2461,-113.57422 0,-36.67578 -11.21485,-71.55078 -32.47266,-101.160159 9.71484,-14.75 8.08984,-34.824219 -4.87891,-47.792969 -14.82422,-14.824218 -38.94531,-14.824218 -53.77343,0 -14.82422,14.824219 -14.82422,38.949219 0,53.773438 7.41406,7.414062 17.14843,11.121094 26.88671,11.121094 5.70704,0 11.40625,-1.285156 16.64454,-3.832032 18.0664,25.843748 27.58203,56.101558 27.58203,87.890628 0,72.38281 -49.13672,133.5664 -118.42188,149.68359 v -53.85937 c 39.67969,-14.64844 66.78907,-53.00391 66.78907,-95.82422 0,-56.3086 -45.8125,-102.121096 -102.125,-102.121096 -56.3086,0 -102.121099,45.808596 -102.121099,102.121096 0,22.22265 7.019531,43.35547 20.292969,61.10547 11.57813,15.48046 27.59766,27.5039 45.57031,34.36328 V 416.14453 L 124.9375,395.52344 C 114.375,378.18359 92.324219,372.55859 74.742188,382.70703 58.019531,392.36328 51.496094,413.55078 59.9375,431.02734 l 37.324219,75.40235 C 99.007812,509.95703 102.55469,512 106.23828,512 c 1.49219,0 3.00391,-0.33203 4.42969,-1.03906 4.95312,-2.45313 6.98047,-8.45703 4.53125,-13.40625 L 77.914062,422.23828 c -3.863281,-8.00391 -0.863281,-17.75391 6.835938,-22.19922 7.957031,-4.59375 18.32031,-1.94922 23.10156,5.89844 l 31.11719,51.05859 c 2.33594,3.82813 6.93359,5.63672 11.25,4.42578 4.31641,-1.21093 7.30078,-5.14843 7.30078,-9.63671 V 222.20703 c 0,-8.70312 7.08203,-15.78125 15.78516,-15.78125 8.70312,0 15.78515,7.07813 15.78515,15.78125 v 39.57813 c -0.004,0.0703 0,0.14062 0,0.21484 v 150.24219 c 0,5.52734 4.47657,10.0039 10.00391,10.0039 5.52734,0 10.00781,-4.47656 10.00781,-10.0039 v -50.28907 c 0,-8.70312 7.07813,-15.78515 15.78125,-15.78515 8.70313,0 15.78516,7.08203 15.78516,15.78515 v 53.92969 c 0,5.52735 4.48047,10.00781 10.00391,10.00781 5.52734,0 10.00781,-4.48046 10.00781,-10.00781 v -53.92969 c 0,-8.70312 7.08203,-15.78515 15.78515,-15.78515 8.70313,0 15.78125,7.08203 15.78125,15.78515 v 54.60547 c 0,5.52735 4.48047,10.00782 10.00782,10.00782 5.52734,0 10.0039,-4.48047 10.0039,-10.00782 v -34.09375 c 0,-8.70312 7.08203,-15.78515 15.78516,-15.78515 8.70312,0 15.78516,7.08203 15.78516,15.78515 v 119.52344 c 0,5.52734 4.47656,10.00781 10.0039,10.00781 5.52735,0 10.00781,-4.48047 10.00781,-10.00781 V 382.46484 c 0,-19.73828 -16.05859,-35.79687 -35.79687,-35.79687 z M 270.5625,64.164062 c -7.02344,-7.023437 -7.02344,-18.449218 0,-25.472656 3.51172,-3.511718 8.12109,-5.265625 12.73437,-5.265625 4.61329,0 9.22657,1.753907 12.73829,5.265625 7.01953,7.023438 7.01953,18.449219 0,25.472656 -7.02344,7.019532 -18.45313,7.019532 -25.47266,0 z M 91.65625,173.49219 c 0,-45.27735 36.83594,-82.113284 82.11328,-82.113284 45.27344,0 82.10938,36.835934 82.10938,82.113284 0,31.88281 -18.6836,60.6914 -46.77735,74.13281 v -25.41797 c 0,-5.61719 -1.30469,-10.9375 -3.625,-15.67578 8.875,-8.55469 14.1211,-20.48047 14.1211,-33.03906 0,-25.27344 -20.5586,-45.83203 -45.82813,-45.83203 -25.27344,0 -45.83203,20.55859 -45.83203,45.83203 0,12.1914 4.96484,23.90625 13.5,32.44531 -2.50391,4.88281 -3.92969,10.41406 -3.92969,16.26953 v 24.99609 C 109.64453,233.58594 91.65625,205.34766 91.65625,173.49219 Z m 63.49219,17.88281 c -4.61328,-4.77344 -7.19922,-11.09766 -7.19922,-17.88281 0,-14.23828 11.58203,-25.82032 25.8164,-25.82032 14.23829,0 25.82032,11.58204 25.82032,25.82032 0,6.88281 -2.79688,13.4375 -7.55469,18.22656 -5.45313,-3.36328 -11.86719,-5.30469 -18.72656,-5.30469 -6.625,0 -12.82813,1.8125 -18.15625,4.96094 z m 0,0"
         inkscape:connector-curvature="0" />
      <path
         id="path89"
         d="m 209.19922,23.578125 c 2.63281,0 5.21484,-1.070313 7.07422,-2.933594 1.86328,-1.859375 2.93359,-4.441406 2.93359,-7.074219 0,-2.628906 -1.07031,-5.210937 -2.93359,-7.074218 -1.85938,-1.859375 -4.44141,-2.929688 -7.07422,-2.929688 -2.62891,0 -5.21094,1.070313 -7.07031,2.929688 -1.86329,1.863281 -2.9336,4.445312 -2.9336,7.074218 0,2.632813 1.07031,5.214844 2.9336,7.074219 1.85937,1.863281 4.4414,2.933594 7.07031,2.933594 z m 0,0"
         inkscape:connector-curvature="0" />
    </g>
    <g
       id="g127"
       transform="matrix(0.3527777,0,0,0.3527777,17.538119,57.766116)">
      <path
         id="path104"
         d="m 1228.6019,21.558803 -140,-80.828125 c -3.0937,-1.785156 -6.9062,-1.785156 -10,0 L 938.60191,21.558803 c -3.09375,1.789062 -5,5.089843 -5,8.660156 v 72.117181 c 0,3.57031 1.90625,6.875 5,8.66016 l 34.35937,19.83594 -34.35937,19.84375 c -3.09375,1.78515 -5,5.08593 -5,8.65625 v 72.11718 c 0,3.57032 1.90625,6.875 5,8.66016 l 34.35937,19.83594 -34.35937,19.83984 c -3.09375,1.78516 -5,5.08984 -5,8.66016 v 72.11718 c 0,3.57032 1.90625,6.875 5,8.66016 l 139.99999,80.82813 c 1.5469,0.89453 3.2734,1.33984 5,1.33984 1.7266,0 3.4531,-0.44531 5,-1.33984 l 140,-80.82813 c 3.0938,-1.78516 5,-5.08984 5,-8.66016 v -72.11718 c 0,-3.57032 -1.9062,-6.875 -5,-8.66016 l -34.3633,-19.83594 34.3633,-19.83984 c 3.0938,-1.78516 5,-5.08984 5,-8.66016 v -72.11718 c 0,-3.57032 -1.9062,-6.8711 -5,-8.65625 l -34.3594,-19.83985 34.3594,-19.83984 c 3.0938,-1.78516 5,-5.08594 5,-8.66016 V 30.222865 c 0,-3.574219 -1.9062,-6.875 -5,-8.664062 z m -145,-60.621094 120,69.285156 -120,69.281249 L 963.60191,30.222865 Z M 953.60191,47.539274 1073.6019,116.82442 v 49.01953 L 953.60191,96.562704 Z m 0,129.113276 119.99999,69.28515 v 49.01954 L 953.60191,225.67599 Z m 0,129.11328 119.99999,69.28125 v 49.02344 L 953.60191,354.78927 Z m 139.99999,118.30469 v -49.01953 l 120,-69.28516 v 49.02344 z m 110,-135.625 -120,69.28125 -119.99999,-69.28125 29.35937,-16.95313 85.64062,49.44531 c 1.5469,0.89454 3.2734,1.33985 5,1.33985 1.7266,0 3.4531,-0.44531 5,-1.33985 l 85.6367,-49.4414 z m -110,6.51172 V 245.9377 l 120,-69.28125 v 49.01954 z m 110,-135.625 -120,69.28515 -119.99999,-69.28515 29.35937,-16.94922 85.64062,49.4414 c 1.5469,0.89453 3.2734,1.33985 5,1.33985 1.7266,0 3.4531,-0.44532 5,-1.33985 l 85.6406,-49.4414 z m -110,6.51562 v -49.02344 l 120,-69.281246 v 49.01953 z m 0,0"
         inkscape:connector-curvature="0" />
      <path
         id="path106"
         d="m 1295.6019,18.281454 c 2.6289,0 5.2109,-1.0625 7.0703,-2.92969 1.8594,-1.85938 2.9297,-4.42969 2.9297,-7.07031 0,-2.62891 -1.0703,-5.21094 -2.9297,-7.07032 -1.8594,-1.85936999 -4.4414,-2.92968 -7.0703,-2.92968 -2.6289,0 -5.2109,1.07031001 -7.0703,2.92968 -1.8594,1.85938 -2.9297,4.44141 -2.9297,7.07032 0,2.64062 1.0703,5.21875 2.9297,7.07031 1.8594,1.86719 4.4414,2.92969 7.0703,2.92969 z m 0,0"
         inkscape:connector-curvature="0" />
      <path
         id="path108"
         d="m 1261.6019,168.77756 c 0,18.74609 15.25,33.99999 34,33.99999 18.7461,0 34,-15.2539 34,-33.99999 0,-15.26954 -10.1172,-28.21875 -24,-32.5 V 48.386934 c 0,-5.52344 -4.4766,-10 -10,-10 -5.5234,0 -10,4.47656 -10,10 v 87.890626 c -13.8828,4.28125 -24,17.23046 -24,32.5 z m 34,-14 c 7.7188,0 14,6.27734 14,14 0,7.71874 -6.2812,13.99999 -14,13.99999 -7.7187,0 -14,-6.28125 -14,-13.99999 0,-7.72266 6.2813,-14 14,-14 z m 0,0"
         inkscape:connector-curvature="0" />
      <path
         id="path110"
         d="m 871.60191,394.26192 c -5.52344,0 -10,4.48047 -10,10 v 37.12891 c 0,5.52344 4.47656,10 10,10 5.52344,0 10,-4.47656 10,-10 v -37.12891 c 0,-5.52343 -4.47656,-10 -10,-10 z m 0,0"
         inkscape:connector-curvature="0" />
      <path
         id="path112"
         d="m 871.60191,204.8713 c -18.7461,0 -34,15.2539 -34,34 0,15.26953 10.11719,28.21875 24,32.49609 v 82.94922 c 0,5.52344 4.47656,10 10,10 5.52344,0 10,-4.47656 10,-10 v -82.94922 c 13.88281,-4.28125 24,-17.22656 24,-32.49609 0,-18.74609 -15.25,-34 -34,-34 z m 0,48 c -7.71875,0 -14,-6.27735 -14,-14 0,-7.71875 6.28125,-14 14,-14 7.71875,0 14,6.28125 14,14 0,7.72265 -6.28125,14 -14,14 z m 0,0"
         inkscape:connector-curvature="0" />
    </g>
  </g>
</svg>
